<svg width="207" height="44" viewBox="0 0 207 44" fill="none" xmlns="http://www.w3.org/2000/svg">
<path d="M16.08 0.129962H19.0807L3.84656 43.6164H0.845902L16.08 0.129962Z" fill="#438AF2"/>
<path d="M36.9905 39.6463C33.5743 39.6463 30.4967 38.9231 27.7577 37.4766C25.0494 36.0301 22.9105 34.0297 21.3409 31.4753C19.8021 28.9209 19.0327 26.0433 19.0327 22.8426C19.0327 19.6419 19.8021 16.7644 21.3409 14.21C22.9105 11.6556 25.0494 9.65512 27.7577 8.20865C30.4967 6.76218 33.5743 6.03895 36.9905 6.03895C40.4066 6.03895 43.4688 6.76218 46.1771 8.20865C48.9161 9.65512 51.0551 11.6556 52.5939 14.21C54.1634 16.7644 54.9482 19.6419 54.9482 22.8426C54.9482 26.0433 54.1634 28.9209 52.5939 31.4753C51.0551 34.0297 48.9161 36.0301 46.1771 37.4766C43.4688 38.9231 40.4066 39.6463 36.9905 39.6463ZM36.9905 32.0754C38.6216 32.0754 40.0988 31.6907 41.4222 30.9213C42.7456 30.1519 43.7919 29.0748 44.5613 27.6898C45.3307 26.2741 45.7154 24.6584 45.7154 22.8426C45.7154 21.0268 45.3307 19.4265 44.5613 18.0416C43.7919 16.6259 42.7456 15.5333 41.4222 14.7639C40.0988 13.9945 38.6216 13.6098 36.9905 13.6098C35.3593 13.6098 33.8821 13.9945 32.5587 14.7639C31.2354 15.5333 30.189 16.6259 29.4196 18.0416C28.6502 19.4265 28.2655 21.0268 28.2655 22.8426C28.2655 24.6584 28.6502 26.2741 29.4196 27.6898C30.189 29.0748 31.2354 30.1519 32.5587 30.9213C33.8821 31.6907 35.3593 32.0754 36.9905 32.0754ZM73.8617 30.4135H68.876V39H59.7356V6.68524H74.508C77.4318 6.68524 79.9708 7.17766 82.1251 8.16249C84.2794 9.11654 85.9413 10.5015 87.1108 12.3172C88.2803 14.1022 88.865 16.2104 88.865 18.6417C88.865 20.9807 88.3111 23.0273 87.2031 24.7815C86.126 26.505 84.5718 27.8591 82.5406 28.8439L89.5113 39H79.7246L73.8617 30.4135ZM79.6322 18.6417C79.6322 17.1337 79.1552 15.9642 78.2012 15.1332C77.2471 14.3023 75.8314 13.8868 73.9541 13.8868H68.876V23.3504H73.9541C75.8314 23.3504 77.2471 22.9503 78.2012 22.1502C79.1552 21.3192 79.6322 20.1497 79.6322 18.6417ZM118.744 22.1502C120.59 22.7965 122.037 23.8121 123.083 25.197C124.13 26.5511 124.653 28.1976 124.653 30.1365C124.653 32.9679 123.514 35.153 121.237 36.6918C118.959 38.2306 115.666 39 111.358 39H93.9077V6.68524H110.434C114.558 6.68524 117.698 7.45464 119.852 8.99344C122.006 10.5015 123.083 12.5481 123.083 15.1332C123.083 16.672 122.699 18.057 121.929 19.288C121.191 20.4883 120.129 21.4423 118.744 22.1502ZM102.956 13.2867V19.5188H109.234C112.312 19.5188 113.851 18.4724 113.851 16.3797C113.851 14.3177 112.312 13.2867 109.234 13.2867H102.956ZM110.619 32.3986C113.82 32.3986 115.42 31.306 115.42 29.1209C115.42 26.9358 113.82 25.8433 110.619 25.8433H102.956V32.3986H110.619ZM129.387 6.68524H138.528V39H129.387V6.68524ZM151.909 13.933H141.984V6.68524H170.929V13.933H161.05V39H151.909V13.933ZM194.362 32.7217H180.697L178.158 39H168.833L183.098 6.68524H192.1L206.411 39H196.901L194.362 32.7217ZM191.684 25.9818L187.53 15.641L183.375 25.9818H191.684Z" fill="url(#paint0_linear)"/>
<defs>
<linearGradient id="paint0_linear" x1="-103" y1="-43.1569" x2="169.293" y2="-170.504" gradientUnits="userSpaceOnUse">
<stop stop-color="#F39405"/>
<stop offset="1" stop-color="#FF4958" stop-opacity="0.99"/>
</linearGradient>
</defs>
</svg>
